<?xml version="1.0" encoding="UTF-8"?>
<svg xmlns="http://www.w3.org/2000/svg" viewBox="0 0 1900 1790" width="1900" height="1790">
  <defs>
    <filter id="dropShadow" x="-2%" y="-2%" width="104%" height="104%">
      <feDropShadow dx="0" dy="2" stdDeviation="2" flood-color="#000" flood-opacity="0.12"/>
    </filter>
    <pattern id="gridPattern" width="40" height="40" patternUnits="userSpaceOnUse">
      <path d="M 40 0 L 0 0 0 40" fill="none" stroke="#e6ebf2" stroke-width="0.6"/>
    </pattern>
  </defs>
  <rect width="1900" height="1790" fill="#ffffff"/>
  <rect x="0" y="80" width="1900" height="1710" fill="url(#gridPattern)"/>
  
    <rect x="0" y="0" width="1900" height="80" fill="#0e1c2f"/>
    <text x="32" y="40" font-family="'Inter','Helvetica Neue','Segoe UI',Arial,sans-serif" font-size="22" font-weight="700" fill="#ffffff">
      Soru 1 — Akilli Ev Yonetim Sistemi
    </text>
    <text x="32" y="64" font-family="'Inter','Helvetica Neue','Segoe UI',Arial,sans-serif" font-size="13" font-style="italic" fill="#a8b8d0">
      State + Mediator + Observer Oruntuleri
    </text>
    <text x="1868" y="40" text-anchor="end" font-family="'Inter','Helvetica Neue','Segoe UI',Arial,sans-serif" font-size="13" fill="#a8b8d0">
      Sinif Diyagrami
    </text>
    <text x="1868" y="64" text-anchor="end" font-family="'Inter','Helvetica Neue','Segoe UI',Arial,sans-serif" font-size="11" fill="#7a8aa0">
      Nesneye Yonelik Yazilim Gelistirme — 2025-2026 Bahar
    </text>
  
  <g class="rel-association">
<path d="M 340 242 L 730 231" fill="none" stroke="#202a3a" stroke-width="1.5"
     stroke-linejoin="round" stroke-linecap="round"/>
<polyline points="718,238 730,231 718,224" fill="none" stroke="#202a3a" stroke-width="1.6" stroke-linejoin="miter" stroke-linecap="round"/>
<text x="362" y="238" font-family="'Inter','Helvetica Neue','Segoe UI',Arial,sans-serif" font-size="11.5" fill="#202a3a">1</text>
<text x="708" y="243" font-family="'Inter','Helvetica Neue','Segoe UI',Arial,sans-serif" font-size="11.5" fill="#202a3a">1..*</text>
<g>
      <text x="535" y="232.5" text-anchor="middle"
        font-family="'Inter','Helvetica Neue','Segoe UI',Arial,sans-serif" font-size="12" font-style="italic" fill="#36507c"
        paint-order="stroke" stroke="#ffffff" stroke-width="3" stroke-linejoin="round">
        kullanir
      </text>
    </g>
</g>
<g class="rel-realization">
<path d="M 730 231 L 680 231" fill="none" stroke="#202a3a" stroke-width="1.5"
    stroke-dasharray="6,5" stroke-linejoin="round" stroke-linecap="round"/>
<polygon points="680,231 694,222 694,240" fill="#ffffff" stroke="#202a3a" stroke-width="1.6" stroke-linejoin="miter"/>
</g>
<g class="rel-realization">
<path d="M 1140 150 L 1140 124 L 584 124 L 584 124 L 584 150" fill="none" stroke="#202a3a" stroke-width="1.5"
    stroke-dasharray="6,5" stroke-linejoin="round" stroke-linecap="round"/>
<polygon points="584,150 575,136 593,136" fill="#ffffff" stroke="#202a3a" stroke-width="1.6" stroke-linejoin="miter"/>
</g>
<g class="rel-aggregation">
<path d="M 864 520 L 864 494 L 520 494 L 520 338 L 520 312" fill="none" stroke="#202a3a" stroke-width="1.5"
     stroke-linejoin="round" stroke-linecap="round"/>
<polygon points="864,520 856,511 864,502 872,511" fill="#ffffff" stroke="#202a3a" stroke-width="1.6" stroke-linejoin="miter"/>
<text x="856" y="502" font-family="'Inter','Helvetica Neue','Segoe UI',Arial,sans-serif" font-size="11.5" fill="#202a3a">1</text>
<text x="528" y="338" font-family="'Inter','Helvetica Neue','Segoe UI',Arial,sans-serif" font-size="11.5" fill="#202a3a">0..*</text>
<g>
      <text x="692" y="412" text-anchor="middle"
        font-family="'Inter','Helvetica Neue','Segoe UI',Arial,sans-serif" font-size="12" font-style="italic" fill="#36507c"
        paint-order="stroke" stroke="#ffffff" stroke-width="3" stroke-linejoin="round">
        bildirimAlicilari
      </text>
    </g>
</g>
<g class="rel-dependency">
<path d="M 1026 520 L 1026 494 L 1440 494 L 1440 360 L 1440 334" fill="none" stroke="#202a3a" stroke-width="1.5"
    stroke-dasharray="6,5" stroke-linejoin="round" stroke-linecap="round"/>
<polyline points="1447,346 1440,334 1433,346" fill="none" stroke="#202a3a" stroke-width="1.6" stroke-linejoin="miter" stroke-linecap="round"/>
<g>
      <text x="1233" y="423" text-anchor="middle"
        font-family="'Inter','Helvetica Neue','Segoe UI',Arial,sans-serif" font-size="12" font-style="italic" fill="#36507c"
        paint-order="stroke" stroke="#ffffff" stroke-width="3" stroke-linejoin="round">
        &lt;&lt;creates&gt;&gt;
      </text>
    </g>
</g>
<g class="rel-realization">
<path d="M 540 689 L 380 590" fill="none" stroke="#202a3a" stroke-width="1.5"
    stroke-dasharray="6,5" stroke-linejoin="round" stroke-linecap="round"/>
<polygon points="380,590 394,581 394,599" fill="#ffffff" stroke="#202a3a" stroke-width="1.6" stroke-linejoin="miter"/>
</g>
<g class="rel-aggregation">
<path d="M 354 1010 L 354 984 L 220 984 L 220 686 L 220 660" fill="none" stroke="#202a3a" stroke-width="1.5"
     stroke-linejoin="round" stroke-linecap="round"/>
<polygon points="354,1010 346,1001 354,992 362,1001" fill="#ffffff" stroke="#202a3a" stroke-width="1.6" stroke-linejoin="miter"/>
<text x="346" y="992" font-family="'Inter','Helvetica Neue','Segoe UI',Arial,sans-serif" font-size="11.5" fill="#202a3a">1</text>
<text x="228" y="686" font-family="'Inter','Helvetica Neue','Segoe UI',Arial,sans-serif" font-size="11.5" fill="#202a3a">0..*</text>
<g>
      <text x="287" y="831" text-anchor="middle"
        font-family="'Inter','Helvetica Neue','Segoe UI',Arial,sans-serif" font-size="12" font-style="italic" fill="#36507c"
        paint-order="stroke" stroke="#ffffff" stroke-width="3" stroke-linejoin="round">
        gozlemciler
      </text>
    </g>
</g>
<g class="rel-dependency">
<path d="M 290 1135 L 380 894.2" fill="none" stroke="#202a3a" stroke-width="1.5"
    stroke-dasharray="6,5" stroke-linejoin="round" stroke-linecap="round"/>
<polyline points="392,887.2 380,894.2 392,901.2" fill="none" stroke="#202a3a" stroke-width="1.6" stroke-linejoin="miter" stroke-linecap="round"/>
<g>
      <text x="335" y="1010.6" text-anchor="middle"
        font-family="'Inter','Helvetica Neue','Segoe UI',Arial,sans-serif" font-size="12" font-style="italic" fill="#36507c"
        paint-order="stroke" stroke="#ffffff" stroke-width="3" stroke-linejoin="round">
        &lt;&lt;creates&gt;&gt;
      </text>
    </g>
</g>
<g class="rel-association">
<path d="M 156 956 L 156 982 L 160 982 L 160 984 L 160 1010" fill="none" stroke="#202a3a" stroke-width="1.5"
     stroke-linejoin="round" stroke-linecap="round"/>
<polyline points="153,998 160,1010 167,998" fill="none" stroke="#202a3a" stroke-width="1.6" stroke-linejoin="miter" stroke-linecap="round"/>
<text x="164" y="982" font-family="'Inter','Helvetica Neue','Segoe UI',Arial,sans-serif" font-size="11.5" fill="#202a3a">1</text>
<text x="152" y="992" font-family="'Inter','Helvetica Neue','Segoe UI',Arial,sans-serif" font-size="11.5" fill="#202a3a">1</text>
</g>
<g class="rel-composition">
<path d="M 621 858 L 621 884 L 482 884 L 482 984 L 482 1010" fill="none" stroke="#202a3a" stroke-width="1.5"
     stroke-linejoin="round" stroke-linecap="round"/>
<polygon points="621,858 629,867 621,876 613,867" fill="#202a3a" stroke="#202a3a" stroke-width="1.6" stroke-linejoin="miter"/>
<text x="629" y="884" font-family="'Inter','Helvetica Neue','Segoe UI',Arial,sans-serif" font-size="11.5" fill="#202a3a">1</text>
<text x="474" y="992" font-family="'Inter','Helvetica Neue','Segoe UI',Arial,sans-serif" font-size="11.5" fill="#202a3a">1..*</text>
<g>
      <text x="551.5" y="930" text-anchor="middle"
        font-family="'Inter','Helvetica Neue','Segoe UI',Arial,sans-serif" font-size="12" font-style="italic" fill="#36507c"
        paint-order="stroke" stroke="#ffffff" stroke-width="3" stroke-linejoin="round">
        sensorler
      </text>
    </g>
</g>
<g class="rel-composition">
<path d="M 864 858 L 864 884 L 804 884 L 804 984 L 804 1010" fill="none" stroke="#202a3a" stroke-width="1.5"
     stroke-linejoin="round" stroke-linecap="round"/>
<polygon points="864,858 872,867 864,876 856,867" fill="#202a3a" stroke="#202a3a" stroke-width="1.6" stroke-linejoin="miter"/>
<text x="872" y="884" font-family="'Inter','Helvetica Neue','Segoe UI',Arial,sans-serif" font-size="11.5" fill="#202a3a">1</text>
<text x="796" y="992" font-family="'Inter','Helvetica Neue','Segoe UI',Arial,sans-serif" font-size="11.5" fill="#202a3a">1..*</text>
<g>
      <text x="834" y="930" text-anchor="middle"
        font-family="'Inter','Helvetica Neue','Segoe UI',Arial,sans-serif" font-size="12" font-style="italic" fill="#36507c"
        paint-order="stroke" stroke="#ffffff" stroke-width="3" stroke-linejoin="round">
        sistemler
      </text>
    </g>
</g>
<g class="rel-inheritance">
<path d="M 190 1330 L 190 1304 L 386 1304 L 386 1286 L 386 1260" fill="none" stroke="#202a3a" stroke-width="1.5"
     stroke-linejoin="round" stroke-linecap="round"/>
<polygon points="386,1260 395,1274 377,1274" fill="#ffffff" stroke="#202a3a" stroke-width="1.6" stroke-linejoin="miter"/>
</g>
<g class="rel-inheritance">
<path d="M 480 1330 L 480 1304 L 514 1304 L 514 1286 L 514 1260" fill="none" stroke="#202a3a" stroke-width="1.5"
     stroke-linejoin="round" stroke-linecap="round"/>
<polygon points="514,1260 523,1274 505,1274" fill="#ffffff" stroke="#202a3a" stroke-width="1.6" stroke-linejoin="miter"/>
</g>
<g class="rel-inheritance">
<path d="M 820 1330 L 820 1304 L 768 1304 L 768 1264 L 768 1238" fill="none" stroke="#202a3a" stroke-width="1.5"
     stroke-linejoin="round" stroke-linecap="round"/>
<polygon points="768,1238 777,1252 759,1252" fill="#ffffff" stroke="#202a3a" stroke-width="1.6" stroke-linejoin="miter"/>
</g>
<g class="rel-inheritance">
<path d="M 1180 1330 L 1180 1304 L 912 1304 L 912 1264 L 912 1238" fill="none" stroke="#202a3a" stroke-width="1.5"
     stroke-linejoin="round" stroke-linecap="round"/>
<polygon points="912,1238 921,1252 903,1252" fill="#ffffff" stroke="#202a3a" stroke-width="1.6" stroke-linejoin="miter"/>
</g>
<g class="rel-aggregation">
<path d="M 1020 1078.4 L 1380 1091" fill="none" stroke="#202a3a" stroke-width="1.5"
     stroke-linejoin="round" stroke-linecap="round"/>
<polygon points="1020,1078.4 1029,1070.4 1038,1078.4 1029,1086.4" fill="#ffffff" stroke="#202a3a" stroke-width="1.6" stroke-linejoin="miter"/>
<text x="1042" y="1074.4" font-family="'Inter','Helvetica Neue','Segoe UI',Arial,sans-serif" font-size="11.5" fill="#202a3a">1</text>
<text x="1358" y="1103" font-family="'Inter','Helvetica Neue','Segoe UI',Arial,sans-serif" font-size="11.5" fill="#202a3a">1</text>
<g>
      <text x="1200" y="1080.7" text-anchor="middle"
        font-family="'Inter','Helvetica Neue','Segoe UI',Arial,sans-serif" font-size="12" font-style="italic" fill="#36507c"
        paint-order="stroke" stroke="#ffffff" stroke-width="3" stroke-linejoin="round">
        aktifMod
      </text>
    </g>
</g>
<g class="rel-realization">
<path d="M 1490 1260 L 1490 1234 L 1470 1234 L 1470 1198 L 1470 1172" fill="none" stroke="#202a3a" stroke-width="1.5"
    stroke-dasharray="6,5" stroke-linejoin="round" stroke-linecap="round"/>
<polygon points="1470,1172 1479,1186 1461,1186" fill="#ffffff" stroke="#202a3a" stroke-width="1.6" stroke-linejoin="miter"/>
</g>
<g class="rel-realization">
<path d="M 1750 1260 L 1750 1234 L 1590 1234 L 1590 1198 L 1590 1172" fill="none" stroke="#202a3a" stroke-width="1.5"
    stroke-dasharray="6,5" stroke-linejoin="round" stroke-linecap="round"/>
<polygon points="1590,1172 1599,1186 1581,1186" fill="#ffffff" stroke="#202a3a" stroke-width="1.6" stroke-linejoin="miter"/>
</g>
<g class="rel-dependency">
<path d="M 1490 1422 L 1490 1448 L 1446 1448 L 1446 1444 L 1446 1470" fill="none" stroke="#202a3a" stroke-width="1.5"
    stroke-dasharray="6,5" stroke-linejoin="round" stroke-linecap="round"/>
<polyline points="1439,1458 1446,1470 1453,1458" fill="none" stroke="#202a3a" stroke-width="1.6" stroke-linejoin="miter" stroke-linecap="round"/>
</g>
<g class="rel-dependency">
<path d="M 1750 1422 L 1750 1448 L 1534 1448 L 1534 1444 L 1534 1470" fill="none" stroke="#202a3a" stroke-width="1.5"
    stroke-dasharray="6,5" stroke-linejoin="round" stroke-linecap="round"/>
<polyline points="1527,1458 1534,1470 1541,1458" fill="none" stroke="#202a3a" stroke-width="1.6" stroke-linejoin="miter" stroke-linecap="round"/>
</g>
<g class="rel-association">
<path d="M 340 278.79999999999995 L 366 278.79999999999995 L 366 231 L 994 231 L 1020 231" fill="none" stroke="#202a3a" stroke-width="1.5"
     stroke-linejoin="round" stroke-linecap="round"/>
<polyline points="1008,238 1020,231 1008,224" fill="none" stroke="#202a3a" stroke-width="1.6" stroke-linejoin="miter" stroke-linecap="round"/>
<text x="362" y="274.79999999999995" font-family="'Inter','Helvetica Neue','Segoe UI',Arial,sans-serif" font-size="11.5" fill="#202a3a">1</text>
<text x="998" y="243" font-family="'Inter','Helvetica Neue','Segoe UI',Arial,sans-serif" font-size="11.5" fill="#202a3a">0..*</text>
</g>
  <g class="cls-Kullanici" filter="url(#dropShadow)">
<rect x="60" y="150" width="280" height="184"
        rx="6" ry="6" fill="#e8f0fb" stroke="#1f3b66" stroke-width="1.6"/>
<rect x="60" y="150" width="280" height="56"
        rx="6" ry="6" fill="#1f3b66" stroke="#1f3b66" stroke-width="1.6"/>
<rect x="60" y="198" width="280" height="8"
        fill="#1f3b66" stroke="none"/>
<line x1="60" y1="206" x2="340" y2="206"
        stroke="#1f3b66" stroke-width="1.6"/>
<text x="200" y="170" text-anchor="middle"
      font-family="'Inter','Helvetica Neue','Segoe UI',Arial,sans-serif" font-style="italic" font-size="12" fill="#ffffff">
      &lt;&lt;entity&gt;&gt;
    </text>
<text x="200" y="192" text-anchor="middle"
    font-family="'Inter','Helvetica Neue','Segoe UI',Arial,sans-serif" font-weight="700" font-size="16"
    
    fill="#ffffff">
    Kullanici
  </text>
<text x="72" y="232" font-family="'JetBrains Mono','SFMono-Regular','Consolas',Menlo,monospace" font-size="12.5" fill="#1a1a1a">- id : int</text>
<text x="72" y="254" font-family="'JetBrains Mono','SFMono-Regular','Consolas',Menlo,monospace" font-size="12.5" fill="#1a1a1a">- adSoyad : String</text>
<text x="72" y="276" font-family="'JetBrains Mono','SFMono-Regular','Consolas',Menlo,monospace" font-size="12.5" fill="#1a1a1a">- eposta : String</text>
<line x1="60" y1="292" x2="340" y2="292"
    stroke="#1f3b66" stroke-width="1"/>
<text x="72" y="318" font-family="'JetBrains Mono','SFMono-Regular','Consolas',Menlo,monospace" font-size="12.5" fill="#1a1a1a">+ uygulamalari() : List</text>
</g>
<g class="cls-KullaniciBildirimAlici" filter="url(#dropShadow)">
<rect x="360" y="150" width="320" height="162"
        rx="6" ry="6" fill="#fff8e7" stroke="#9c6914" stroke-width="1.6"/>
<rect x="360" y="150" width="320" height="56"
        rx="6" ry="6" fill="#9c6914" stroke="#9c6914" stroke-width="1.6"/>
<rect x="360" y="198" width="320" height="8"
        fill="#9c6914" stroke="none"/>
<line x1="360" y1="206" x2="680" y2="206"
        stroke="#9c6914" stroke-width="1.6"/>
<text x="520" y="170" text-anchor="middle"
      font-family="'Inter','Helvetica Neue','Segoe UI',Arial,sans-serif" font-style="italic" font-size="12" fill="#ffffff">
      &lt;&lt;interface&gt;&gt;
    </text>
<text x="520" y="192" text-anchor="middle"
    font-family="'Inter','Helvetica Neue','Segoe UI',Arial,sans-serif" font-weight="700" font-size="16"
    font-style="italic"
    fill="#ffffff">
    KullaniciBildirimAlici
  </text>
<line x1="360" y1="248" x2="680" y2="248"
    stroke="#9c6914" stroke-width="1"/>
<text x="372" y="274" font-family="'JetBrains Mono','SFMono-Regular','Consolas',Menlo,monospace" font-size="12.5" fill="#1a1a1a">+ bildirimGoster(olay : SensorOlayi) : void</text>
<text x="372" y="296" font-family="'JetBrains Mono','SFMono-Regular','Consolas',Menlo,monospace" font-size="12.5" fill="#1a1a1a">+ durumYansit(durumOzeti : DurumOzeti) : void</text>
</g>
<g class="cls-MobilUygulama" filter="url(#dropShadow)">
<rect x="730" y="150" width="240" height="162"
        rx="6" ry="6" fill="#ffffff" stroke="#1f3b66" stroke-width="1.6"/>
<rect x="730" y="150" width="240" height="56"
        rx="6" ry="6" fill="#2c5282" stroke="#1f3b66" stroke-width="1.6"/>
<rect x="730" y="198" width="240" height="8"
        fill="#2c5282" stroke="none"/>
<line x1="730" y1="206" x2="970" y2="206"
        stroke="#1f3b66" stroke-width="1.6"/>
<text x="850" y="192" text-anchor="middle"
    font-family="'Inter','Helvetica Neue','Segoe UI',Arial,sans-serif" font-weight="700" font-size="16"
    
    fill="#ffffff">
    MobilUygulama
  </text>
<text x="742" y="232" font-family="'JetBrains Mono','SFMono-Regular','Consolas',Menlo,monospace" font-size="12.5" fill="#1a1a1a">- cihazId : String</text>
<line x1="730" y1="248" x2="970" y2="248"
    stroke="#1f3b66" stroke-width="1"/>
<text x="742" y="274" font-family="'JetBrains Mono','SFMono-Regular','Consolas',Menlo,monospace" font-size="12.5" fill="#1a1a1a">+ bildirimGoster(olay) : void</text>
<text x="742" y="296" font-family="'JetBrains Mono','SFMono-Regular','Consolas',Menlo,monospace" font-size="12.5" fill="#1a1a1a">+ durumYansit(ozet) : void</text>
</g>
<g class="cls-WebUygulamasi" filter="url(#dropShadow)">
<rect x="1020" y="150" width="240" height="162"
        rx="6" ry="6" fill="#ffffff" stroke="#1f3b66" stroke-width="1.6"/>
<rect x="1020" y="150" width="240" height="56"
        rx="6" ry="6" fill="#2c5282" stroke="#1f3b66" stroke-width="1.6"/>
<rect x="1020" y="198" width="240" height="8"
        fill="#2c5282" stroke="none"/>
<line x1="1020" y1="206" x2="1260" y2="206"
        stroke="#1f3b66" stroke-width="1.6"/>
<text x="1140" y="192" text-anchor="middle"
    font-family="'Inter','Helvetica Neue','Segoe UI',Arial,sans-serif" font-weight="700" font-size="16"
    
    fill="#ffffff">
    WebUygulamasi
  </text>
<text x="1032" y="232" font-family="'JetBrains Mono','SFMono-Regular','Consolas',Menlo,monospace" font-size="12.5" fill="#1a1a1a">- oturumKimligi : String</text>
<line x1="1020" y1="248" x2="1260" y2="248"
    stroke="#1f3b66" stroke-width="1"/>
<text x="1032" y="274" font-family="'JetBrains Mono','SFMono-Regular','Consolas',Menlo,monospace" font-size="12.5" fill="#1a1a1a">+ bildirimGoster(olay) : void</text>
<text x="1032" y="296" font-family="'JetBrains Mono','SFMono-Regular','Consolas',Menlo,monospace" font-size="12.5" fill="#1a1a1a">+ durumYansit(ozet) : void</text>
</g>
<g class="cls-DurumOzeti" filter="url(#dropShadow)">
<rect x="1320" y="150" width="240" height="184"
        rx="6" ry="6" fill="#f7f0e6" stroke="#5a4632" stroke-width="1.6"/>
<rect x="1320" y="150" width="240" height="56"
        rx="6" ry="6" fill="#5a4632" stroke="#5a4632" stroke-width="1.6"/>
<rect x="1320" y="198" width="240" height="8"
        fill="#5a4632" stroke="none"/>
<line x1="1320" y1="206" x2="1560" y2="206"
        stroke="#5a4632" stroke-width="1.6"/>
<text x="1440" y="170" text-anchor="middle"
      font-family="'Inter','Helvetica Neue','Segoe UI',Arial,sans-serif" font-style="italic" font-size="12" fill="#ffffff">
      &lt;&lt;value object&gt;&gt;
    </text>
<text x="1440" y="192" text-anchor="middle"
    font-family="'Inter','Helvetica Neue','Segoe UI',Arial,sans-serif" font-weight="700" font-size="16"
    
    fill="#ffffff">
    DurumOzeti
  </text>
<text x="1332" y="232" font-family="'JetBrains Mono','SFMono-Regular','Consolas',Menlo,monospace" font-size="12.5" fill="#1a1a1a">- sistemDurumlari : Map</text>
<text x="1332" y="254" font-family="'JetBrains Mono','SFMono-Regular','Consolas',Menlo,monospace" font-size="12.5" fill="#1a1a1a">- sensorOkumalari : Map</text>
<text x="1332" y="276" font-family="'JetBrains Mono','SFMono-Regular','Consolas',Menlo,monospace" font-size="12.5" fill="#1a1a1a">- aktifMod : ModTipi</text>
<line x1="1320" y1="292" x2="1560" y2="292"
    stroke="#5a4632" stroke-width="1"/>
</g>
<g class="cls-AkilliEvIzlemeMotoru" filter="url(#dropShadow)">
<rect x="540" y="520" width="540" height="338"
        rx="6" ry="6" fill="#fbeaf0" stroke="#7b1d3a" stroke-width="1.6"/>
<rect x="540" y="520" width="540" height="56"
        rx="6" ry="6" fill="#7b1d3a" stroke="#7b1d3a" stroke-width="1.6"/>
<rect x="540" y="568" width="540" height="8"
        fill="#7b1d3a" stroke="none"/>
<line x1="540" y1="576" x2="1080" y2="576"
        stroke="#7b1d3a" stroke-width="1.6"/>
<text x="810" y="540" text-anchor="middle"
      font-family="'Inter','Helvetica Neue','Segoe UI',Arial,sans-serif" font-style="italic" font-size="12" fill="#ffffff">
      &lt;&lt;mediator&gt;&gt; &lt;&lt;observer&gt;&gt;
    </text>
<text x="810" y="562" text-anchor="middle"
    font-family="'Inter','Helvetica Neue','Segoe UI',Arial,sans-serif" font-weight="700" font-size="16"
    
    fill="#ffffff">
    AkilliEvIzlemeMotoru
  </text>
<text x="552" y="602" font-family="'JetBrains Mono','SFMono-Regular','Consolas',Menlo,monospace" font-size="12.5" fill="#1a1a1a">- sistemler : List&lt;EvSistemi&gt;</text>
<text x="552" y="624" font-family="'JetBrains Mono','SFMono-Regular','Consolas',Menlo,monospace" font-size="12.5" fill="#1a1a1a">- sensorler : List&lt;Sensor&gt;</text>
<text x="552" y="646" font-family="'JetBrains Mono','SFMono-Regular','Consolas',Menlo,monospace" font-size="12.5" fill="#1a1a1a">- bildirimAlicilari : List&lt;KullaniciBildirimAlici&gt;</text>
<text x="552" y="668" font-family="'JetBrains Mono','SFMono-Regular','Consolas',Menlo,monospace" font-size="12.5" fill="#1a1a1a">- aktifModTipi : ModTipi</text>
<line x1="540" y1="684" x2="1080" y2="684"
    stroke="#7b1d3a" stroke-width="1"/>
<text x="552" y="710" font-family="'JetBrains Mono','SFMono-Regular','Consolas',Menlo,monospace" font-size="12.5" fill="#1a1a1a">+ sistemKaydet(s : EvSistemi) : void</text>
<text x="552" y="732" font-family="'JetBrains Mono','SFMono-Regular','Consolas',Menlo,monospace" font-size="12.5" fill="#1a1a1a">+ sensorKaydet(s : Sensor) : void</text>
<text x="552" y="754" font-family="'JetBrains Mono','SFMono-Regular','Consolas',Menlo,monospace" font-size="12.5" fill="#1a1a1a">+ bildirimAliciEkle(b : KullaniciBildirimAlici) : void</text>
<text x="552" y="776" font-family="'JetBrains Mono','SFMono-Regular','Consolas',Menlo,monospace" font-size="12.5" fill="#1a1a1a">+ tumModlariAyarla(tip : ModTipi) : void</text>
<text x="552" y="798" font-family="'JetBrains Mono','SFMono-Regular','Consolas',Menlo,monospace" font-size="12.5" fill="#1a1a1a">+ komutGonder(sistemId : int, komut : String) : void</text>
<text x="552" y="820" font-family="'JetBrains Mono','SFMono-Regular','Consolas',Menlo,monospace" font-size="12.5" fill="#1a1a1a">+ bildirimAl(olay : SensorOlayi) : void</text>
<text x="552" y="842" font-family="'JetBrains Mono','SFMono-Regular','Consolas',Menlo,monospace" font-size="12.5" fill="#1a1a1a">+ durumOzetiYayinla() : void</text>
</g>
<g class="cls-SensorGozlemcisi" filter="url(#dropShadow)">
<rect x="60" y="520" width="320" height="140"
        rx="6" ry="6" fill="#fff8e7" stroke="#9c6914" stroke-width="1.6"/>
<rect x="60" y="520" width="320" height="56"
        rx="6" ry="6" fill="#9c6914" stroke="#9c6914" stroke-width="1.6"/>
<rect x="60" y="568" width="320" height="8"
        fill="#9c6914" stroke="none"/>
<line x1="60" y1="576" x2="380" y2="576"
        stroke="#9c6914" stroke-width="1.6"/>
<text x="220" y="540" text-anchor="middle"
      font-family="'Inter','Helvetica Neue','Segoe UI',Arial,sans-serif" font-style="italic" font-size="12" fill="#ffffff">
      &lt;&lt;interface&gt;&gt;
    </text>
<text x="220" y="562" text-anchor="middle"
    font-family="'Inter','Helvetica Neue','Segoe UI',Arial,sans-serif" font-weight="700" font-size="16"
    font-style="italic"
    fill="#ffffff">
    SensorGozlemcisi
  </text>
<line x1="60" y1="618" x2="380" y2="618"
    stroke="#9c6914" stroke-width="1"/>
<text x="72" y="644" font-family="'JetBrains Mono','SFMono-Regular','Consolas',Menlo,monospace" font-size="12.5" fill="#1a1a1a">+ bildirimAl(olay : SensorOlayi) : void</text>
</g>
<g class="cls-SensorOlayi" filter="url(#dropShadow)">
<rect x="60" y="750" width="320" height="206"
        rx="6" ry="6" fill="#f7f0e6" stroke="#5a4632" stroke-width="1.6"/>
<rect x="60" y="750" width="320" height="56"
        rx="6" ry="6" fill="#5a4632" stroke="#5a4632" stroke-width="1.6"/>
<rect x="60" y="798" width="320" height="8"
        fill="#5a4632" stroke="none"/>
<line x1="60" y1="806" x2="380" y2="806"
        stroke="#5a4632" stroke-width="1.6"/>
<text x="220" y="770" text-anchor="middle"
      font-family="'Inter','Helvetica Neue','Segoe UI',Arial,sans-serif" font-style="italic" font-size="12" fill="#ffffff">
      &lt;&lt;value object&gt;&gt;
    </text>
<text x="220" y="792" text-anchor="middle"
    font-family="'Inter','Helvetica Neue','Segoe UI',Arial,sans-serif" font-weight="700" font-size="16"
    
    fill="#ffffff">
    SensorOlayi
  </text>
<text x="72" y="832" font-family="'JetBrains Mono','SFMono-Regular','Consolas',Menlo,monospace" font-size="12.5" fill="#1a1a1a">- tip : SensorTipi</text>
<text x="72" y="854" font-family="'JetBrains Mono','SFMono-Regular','Consolas',Menlo,monospace" font-size="12.5" fill="#1a1a1a">- sensorId : int</text>
<text x="72" y="876" font-family="'JetBrains Mono','SFMono-Regular','Consolas',Menlo,monospace" font-size="12.5" fill="#1a1a1a">- veri : String</text>
<text x="72" y="898" font-family="'JetBrains Mono','SFMono-Regular','Consolas',Menlo,monospace" font-size="12.5" fill="#1a1a1a">- zaman : LocalDateTime</text>
<line x1="60" y1="914" x2="380" y2="914"
    stroke="#5a4632" stroke-width="1"/>
</g>
<g class="cls-SensorTipi" filter="url(#dropShadow)">
<rect x="60" y="1010" width="200" height="162"
        rx="6" ry="6" fill="#e9f6ee" stroke="#1c6749" stroke-width="1.6"/>
<rect x="60" y="1010" width="200" height="56"
        rx="6" ry="6" fill="#1c6749" stroke="#1c6749" stroke-width="1.6"/>
<rect x="60" y="1058" width="200" height="8"
        fill="#1c6749" stroke="none"/>
<line x1="60" y1="1066" x2="260" y2="1066"
        stroke="#1c6749" stroke-width="1.6"/>
<text x="160" y="1030" text-anchor="middle"
      font-family="'Inter','Helvetica Neue','Segoe UI',Arial,sans-serif" font-style="italic" font-size="12" fill="#ffffff">
      &lt;&lt;enumeration&gt;&gt;
    </text>
<text x="160" y="1052" text-anchor="middle"
    font-family="'Inter','Helvetica Neue','Segoe UI',Arial,sans-serif" font-weight="700" font-size="16"
    
    fill="#ffffff">
    SensorTipi
  </text>
<text x="72" y="1092" font-family="'JetBrains Mono','SFMono-Regular','Consolas',Menlo,monospace" font-size="12.5" fill="#1a1a1a">KAPI</text>
<text x="72" y="1114" font-family="'JetBrains Mono','SFMono-Regular','Consolas',Menlo,monospace" font-size="12.5" fill="#1a1a1a">HAREKET</text>
<line x1="60" y1="1130" x2="260" y2="1130"
    stroke="#1c6749" stroke-width="1"/>
</g>
<g class="cls-Sensor" filter="url(#dropShadow)">
<rect x="290" y="1010" width="320" height="250"
        rx="6" ry="6" fill="#f3edff" stroke="#553c9a" stroke-width="1.6"/>
<rect x="290" y="1010" width="320" height="56"
        rx="6" ry="6" fill="#553c9a" stroke="#553c9a" stroke-width="1.6"/>
<rect x="290" y="1058" width="320" height="8"
        fill="#553c9a" stroke="none"/>
<line x1="290" y1="1066" x2="610" y2="1066"
        stroke="#553c9a" stroke-width="1.6"/>
<text x="450" y="1030" text-anchor="middle"
      font-family="'Inter','Helvetica Neue','Segoe UI',Arial,sans-serif" font-style="italic" font-size="12" fill="#ffffff">
      &lt;&lt;abstract&gt;&gt;
    </text>
<text x="450" y="1052" text-anchor="middle"
    font-family="'Inter','Helvetica Neue','Segoe UI',Arial,sans-serif" font-weight="700" font-size="16"
    font-style="italic"
    fill="#ffffff">
    Sensor
  </text>
<text x="302" y="1092" font-family="'JetBrains Mono','SFMono-Regular','Consolas',Menlo,monospace" font-size="12.5" fill="#1a1a1a"># id : int</text>
<text x="302" y="1114" font-family="'JetBrains Mono','SFMono-Regular','Consolas',Menlo,monospace" font-size="12.5" fill="#1a1a1a"># etkin : boolean</text>
<text x="302" y="1136" font-family="'JetBrains Mono','SFMono-Regular','Consolas',Menlo,monospace" font-size="12.5" fill="#1a1a1a"># gozlemciler : List&lt;SensorGozlemcisi&gt;</text>
<line x1="290" y1="1152" x2="610" y2="1152"
    stroke="#553c9a" stroke-width="1"/>
<text x="302" y="1178" font-family="'JetBrains Mono','SFMono-Regular','Consolas',Menlo,monospace" font-size="12.5" fill="#1a1a1a">+ attach(o : SensorGozlemcisi) : void</text>
<text x="302" y="1200" font-family="'JetBrains Mono','SFMono-Regular','Consolas',Menlo,monospace" font-size="12.5" fill="#1a1a1a">+ detach(o : SensorGozlemcisi) : void</text>
<text x="302" y="1222" font-family="'JetBrains Mono','SFMono-Regular','Consolas',Menlo,monospace" font-size="12.5" fill="#1a1a1a"># bildir(olay : SensorOlayi) : void</text>
<text x="302" y="1244" font-family="'JetBrains Mono','SFMono-Regular','Consolas',Menlo,monospace" font-size="12.5" fill="#1a1a1a">+ olcumGonder() : void  {abstract}</text>
</g>
<g class="cls-KapiSensoru" filter="url(#dropShadow)">
<rect x="60" y="1330" width="260" height="140"
        rx="6" ry="6" fill="#ffffff" stroke="#1f3b66" stroke-width="1.6"/>
<rect x="60" y="1330" width="260" height="56"
        rx="6" ry="6" fill="#2c5282" stroke="#1f3b66" stroke-width="1.6"/>
<rect x="60" y="1378" width="260" height="8"
        fill="#2c5282" stroke="none"/>
<line x1="60" y1="1386" x2="320" y2="1386"
        stroke="#1f3b66" stroke-width="1.6"/>
<text x="190" y="1372" text-anchor="middle"
    font-family="'Inter','Helvetica Neue','Segoe UI',Arial,sans-serif" font-weight="700" font-size="16"
    
    fill="#ffffff">
    KapiSensoru
  </text>
<text x="72" y="1412" font-family="'JetBrains Mono','SFMono-Regular','Consolas',Menlo,monospace" font-size="12.5" fill="#1a1a1a">- acikMi : boolean</text>
<line x1="60" y1="1428" x2="320" y2="1428"
    stroke="#1f3b66" stroke-width="1"/>
<text x="72" y="1454" font-family="'JetBrains Mono','SFMono-Regular','Consolas',Menlo,monospace" font-size="12.5" fill="#1a1a1a">+ olcumGonder() : void</text>
</g>
<g class="cls-HareketSensoru" filter="url(#dropShadow)">
<rect x="350" y="1330" width="260" height="140"
        rx="6" ry="6" fill="#ffffff" stroke="#1f3b66" stroke-width="1.6"/>
<rect x="350" y="1330" width="260" height="56"
        rx="6" ry="6" fill="#2c5282" stroke="#1f3b66" stroke-width="1.6"/>
<rect x="350" y="1378" width="260" height="8"
        fill="#2c5282" stroke="none"/>
<line x1="350" y1="1386" x2="610" y2="1386"
        stroke="#1f3b66" stroke-width="1.6"/>
<text x="480" y="1372" text-anchor="middle"
    font-family="'Inter','Helvetica Neue','Segoe UI',Arial,sans-serif" font-weight="700" font-size="16"
    
    fill="#ffffff">
    HareketSensoru
  </text>
<text x="362" y="1412" font-family="'JetBrains Mono','SFMono-Regular','Consolas',Menlo,monospace" font-size="12.5" fill="#1a1a1a">- hareketAlgilandi : boolean</text>
<line x1="350" y1="1428" x2="610" y2="1428"
    stroke="#1f3b66" stroke-width="1"/>
<text x="362" y="1454" font-family="'JetBrains Mono','SFMono-Regular','Consolas',Menlo,monospace" font-size="12.5" fill="#1a1a1a">+ olcumGonder() : void</text>
</g>
<g class="cls-EvSistemi" filter="url(#dropShadow)">
<rect x="660" y="1010" width="360" height="228"
        rx="6" ry="6" fill="#f3edff" stroke="#553c9a" stroke-width="1.6"/>
<rect x="660" y="1010" width="360" height="56"
        rx="6" ry="6" fill="#553c9a" stroke="#553c9a" stroke-width="1.6"/>
<rect x="660" y="1058" width="360" height="8"
        fill="#553c9a" stroke="none"/>
<line x1="660" y1="1066" x2="1020" y2="1066"
        stroke="#553c9a" stroke-width="1.6"/>
<text x="840" y="1030" text-anchor="middle"
      font-family="'Inter','Helvetica Neue','Segoe UI',Arial,sans-serif" font-style="italic" font-size="12" fill="#ffffff">
      &lt;&lt;abstract&gt;&gt;
    </text>
<text x="840" y="1052" text-anchor="middle"
    font-family="'Inter','Helvetica Neue','Segoe UI',Arial,sans-serif" font-weight="700" font-size="16"
    font-style="italic"
    fill="#ffffff">
    EvSistemi
  </text>
<text x="672" y="1092" font-family="'JetBrains Mono','SFMono-Regular','Consolas',Menlo,monospace" font-size="12.5" fill="#1a1a1a"># id : int</text>
<text x="672" y="1114" font-family="'JetBrains Mono','SFMono-Regular','Consolas',Menlo,monospace" font-size="12.5" fill="#1a1a1a"># aktifMod : CalismaModu</text>
<line x1="660" y1="1130" x2="1020" y2="1130"
    stroke="#553c9a" stroke-width="1"/>
<text x="672" y="1156" font-family="'JetBrains Mono','SFMono-Regular','Consolas',Menlo,monospace" font-size="12.5" fill="#1a1a1a">+ modAyarla(mod : CalismaModu) : void</text>
<text x="672" y="1178" font-family="'JetBrains Mono','SFMono-Regular','Consolas',Menlo,monospace" font-size="12.5" fill="#1a1a1a">+ aktifModu() : CalismaModu</text>
<text x="672" y="1200" font-family="'JetBrains Mono','SFMono-Regular','Consolas',Menlo,monospace" font-size="12.5" fill="#1a1a1a">+ durumGetir() : String</text>
<text x="672" y="1222" font-family="'JetBrains Mono','SFMono-Regular','Consolas',Menlo,monospace" font-size="12.5" fill="#1a1a1a">+ komutCalistir(komut : String) : void  {abstract}</text>
</g>
<g class="cls-AydinlatmaSistemi" filter="url(#dropShadow)">
<rect x="660" y="1330" width="320" height="206"
        rx="6" ry="6" fill="#ffffff" stroke="#1f3b66" stroke-width="1.6"/>
<rect x="660" y="1330" width="320" height="56"
        rx="6" ry="6" fill="#2c5282" stroke="#1f3b66" stroke-width="1.6"/>
<rect x="660" y="1378" width="320" height="8"
        fill="#2c5282" stroke="none"/>
<line x1="660" y1="1386" x2="980" y2="1386"
        stroke="#1f3b66" stroke-width="1.6"/>
<text x="820" y="1372" text-anchor="middle"
    font-family="'Inter','Helvetica Neue','Segoe UI',Arial,sans-serif" font-weight="700" font-size="16"
    
    fill="#ffffff">
    AydinlatmaSistemi
  </text>
<text x="672" y="1412" font-family="'JetBrains Mono','SFMono-Regular','Consolas',Menlo,monospace" font-size="12.5" fill="#1a1a1a">- ortamIsikSeviyesi : int</text>
<text x="672" y="1434" font-family="'JetBrains Mono','SFMono-Regular','Consolas',Menlo,monospace" font-size="12.5" fill="#1a1a1a">- aydinlatmaKapasitesi : int</text>
<line x1="660" y1="1450" x2="980" y2="1450"
    stroke="#1f3b66" stroke-width="1"/>
<text x="672" y="1476" font-family="'JetBrains Mono','SFMono-Regular','Consolas',Menlo,monospace" font-size="12.5" fill="#1a1a1a">+ asgariAydinlatmaUygula() : void</text>
<text x="672" y="1498" font-family="'JetBrains Mono','SFMono-Regular','Consolas',Menlo,monospace" font-size="12.5" fill="#1a1a1a">+ maksimumAydinlatmaUygula() : void</text>
<text x="672" y="1520" font-family="'JetBrains Mono','SFMono-Regular','Consolas',Menlo,monospace" font-size="12.5" fill="#1a1a1a">+ komutCalistir(komut) : void</text>
</g>
<g class="cls-IsitmaSistemi" filter="url(#dropShadow)">
<rect x="1020" y="1330" width="320" height="184"
        rx="6" ry="6" fill="#ffffff" stroke="#1f3b66" stroke-width="1.6"/>
<rect x="1020" y="1330" width="320" height="56"
        rx="6" ry="6" fill="#2c5282" stroke="#1f3b66" stroke-width="1.6"/>
<rect x="1020" y="1378" width="320" height="8"
        fill="#2c5282" stroke="none"/>
<line x1="1020" y1="1386" x2="1340" y2="1386"
        stroke="#1f3b66" stroke-width="1.6"/>
<text x="1180" y="1372" text-anchor="middle"
    font-family="'Inter','Helvetica Neue','Segoe UI',Arial,sans-serif" font-weight="700" font-size="16"
    
    fill="#ffffff">
    IsitmaSistemi
  </text>
<text x="1032" y="1412" font-family="'JetBrains Mono','SFMono-Regular','Consolas',Menlo,monospace" font-size="12.5" fill="#1a1a1a">- hedefSicaklik : int</text>
<text x="1032" y="1434" font-family="'JetBrains Mono','SFMono-Regular','Consolas',Menlo,monospace" font-size="12.5" fill="#1a1a1a">- panelSicakligi : int</text>
<line x1="1020" y1="1450" x2="1340" y2="1450"
    stroke="#1f3b66" stroke-width="1"/>
<text x="1032" y="1476" font-family="'JetBrains Mono','SFMono-Regular','Consolas',Menlo,monospace" font-size="12.5" fill="#1a1a1a">+ sicaklikAyarla(derece : int) : void</text>
<text x="1032" y="1498" font-family="'JetBrains Mono','SFMono-Regular','Consolas',Menlo,monospace" font-size="12.5" fill="#1a1a1a">+ komutCalistir(komut) : void</text>
</g>
<g class="cls-CalismaModu" filter="url(#dropShadow)">
<rect x="1380" y="1010" width="300" height="162"
        rx="6" ry="6" fill="#fff8e7" stroke="#9c6914" stroke-width="1.6"/>
<rect x="1380" y="1010" width="300" height="56"
        rx="6" ry="6" fill="#9c6914" stroke="#9c6914" stroke-width="1.6"/>
<rect x="1380" y="1058" width="300" height="8"
        fill="#9c6914" stroke="none"/>
<line x1="1380" y1="1066" x2="1680" y2="1066"
        stroke="#9c6914" stroke-width="1.6"/>
<text x="1530" y="1030" text-anchor="middle"
      font-family="'Inter','Helvetica Neue','Segoe UI',Arial,sans-serif" font-style="italic" font-size="12" fill="#ffffff">
      &lt;&lt;interface&gt;&gt;
    </text>
<text x="1530" y="1052" text-anchor="middle"
    font-family="'Inter','Helvetica Neue','Segoe UI',Arial,sans-serif" font-weight="700" font-size="16"
    font-style="italic"
    fill="#ffffff">
    CalismaModu
  </text>
<line x1="1380" y1="1108" x2="1680" y2="1108"
    stroke="#9c6914" stroke-width="1"/>
<text x="1392" y="1134" font-family="'JetBrains Mono','SFMono-Regular','Consolas',Menlo,monospace" font-size="12.5" fill="#1a1a1a">+ uygula(sistem : EvSistemi) : void</text>
<text x="1392" y="1156" font-family="'JetBrains Mono','SFMono-Regular','Consolas',Menlo,monospace" font-size="12.5" fill="#1a1a1a">+ tipi() : ModTipi</text>
</g>
<g class="cls-GuvenliMod" filter="url(#dropShadow)">
<rect x="1380" y="1260" width="220" height="162"
        rx="6" ry="6" fill="#ffffff" stroke="#1f3b66" stroke-width="1.6"/>
<rect x="1380" y="1260" width="220" height="56"
        rx="6" ry="6" fill="#2c5282" stroke="#1f3b66" stroke-width="1.6"/>
<rect x="1380" y="1308" width="220" height="8"
        fill="#2c5282" stroke="none"/>
<line x1="1380" y1="1316" x2="1600" y2="1316"
        stroke="#1f3b66" stroke-width="1.6"/>
<text x="1490" y="1302" text-anchor="middle"
    font-family="'Inter','Helvetica Neue','Segoe UI',Arial,sans-serif" font-weight="700" font-size="16"
    
    fill="#ffffff">
    GuvenliMod
  </text>
<line x1="1380" y1="1358" x2="1600" y2="1358"
    stroke="#1f3b66" stroke-width="1"/>
<text x="1392" y="1384" font-family="'JetBrains Mono','SFMono-Regular','Consolas',Menlo,monospace" font-size="12.5" fill="#1a1a1a">+ uygula(sistem) : void</text>
<text x="1392" y="1406" font-family="'JetBrains Mono','SFMono-Regular','Consolas',Menlo,monospace" font-size="12.5" fill="#1a1a1a">+ tipi() : ModTipi</text>
</g>
<g class="cls-TasarrufluMod" filter="url(#dropShadow)">
<rect x="1640" y="1260" width="220" height="162"
        rx="6" ry="6" fill="#ffffff" stroke="#1f3b66" stroke-width="1.6"/>
<rect x="1640" y="1260" width="220" height="56"
        rx="6" ry="6" fill="#2c5282" stroke="#1f3b66" stroke-width="1.6"/>
<rect x="1640" y="1308" width="220" height="8"
        fill="#2c5282" stroke="none"/>
<line x1="1640" y1="1316" x2="1860" y2="1316"
        stroke="#1f3b66" stroke-width="1.6"/>
<text x="1750" y="1302" text-anchor="middle"
    font-family="'Inter','Helvetica Neue','Segoe UI',Arial,sans-serif" font-weight="700" font-size="16"
    
    fill="#ffffff">
    TasarrufluMod
  </text>
<line x1="1640" y1="1358" x2="1860" y2="1358"
    stroke="#1f3b66" stroke-width="1"/>
<text x="1652" y="1384" font-family="'JetBrains Mono','SFMono-Regular','Consolas',Menlo,monospace" font-size="12.5" fill="#1a1a1a">+ uygula(sistem) : void</text>
<text x="1652" y="1406" font-family="'JetBrains Mono','SFMono-Regular','Consolas',Menlo,monospace" font-size="12.5" fill="#1a1a1a">+ tipi() : ModTipi</text>
</g>
<g class="cls-ModTipi" filter="url(#dropShadow)">
<rect x="1380" y="1470" width="220" height="162"
        rx="6" ry="6" fill="#e9f6ee" stroke="#1c6749" stroke-width="1.6"/>
<rect x="1380" y="1470" width="220" height="56"
        rx="6" ry="6" fill="#1c6749" stroke="#1c6749" stroke-width="1.6"/>
<rect x="1380" y="1518" width="220" height="8"
        fill="#1c6749" stroke="none"/>
<line x1="1380" y1="1526" x2="1600" y2="1526"
        stroke="#1c6749" stroke-width="1.6"/>
<text x="1490" y="1490" text-anchor="middle"
      font-family="'Inter','Helvetica Neue','Segoe UI',Arial,sans-serif" font-style="italic" font-size="12" fill="#ffffff">
      &lt;&lt;enumeration&gt;&gt;
    </text>
<text x="1490" y="1512" text-anchor="middle"
    font-family="'Inter','Helvetica Neue','Segoe UI',Arial,sans-serif" font-weight="700" font-size="16"
    
    fill="#ffffff">
    ModTipi
  </text>
<text x="1392" y="1552" font-family="'JetBrains Mono','SFMono-Regular','Consolas',Menlo,monospace" font-size="12.5" fill="#1a1a1a">GUVENLI</text>
<text x="1392" y="1574" font-family="'JetBrains Mono','SFMono-Regular','Consolas',Menlo,monospace" font-size="12.5" fill="#1a1a1a">TASARRUFLU</text>
<line x1="1380" y1="1590" x2="1600" y2="1590"
    stroke="#1c6749" stroke-width="1"/>
</g>
  <g>
<rect x="20" y="1680" width="1860" height="80" rx="8" ry="8" fill="#f7f9fc" stroke="#cfd6e2"/>
<text x="32" y="1702" font-family="'Inter','Helvetica Neue','Segoe UI',Arial,sans-serif" font-size="13" font-weight="700" fill="#0e1c2f">Notasyon Aciklamasi</text>
<line x1="36" y1="1730" x2="92" y2="1730" stroke="#202a3a" stroke-width="1.5" />
<polygon points="92,1730 78,1739 78,1721" fill="#ffffff" stroke="#202a3a" stroke-width="1.6" stroke-linejoin="miter"/>
<text x="102" y="1734" font-family="'Inter','Helvetica Neue','Segoe UI',Arial,sans-serif" font-size="12" fill="#202a3a">Inheritance</text>
<line x1="186" y1="1730" x2="242" y2="1730" stroke="#202a3a" stroke-width="1.5" stroke-dasharray="6,5"/>
<polygon points="242,1730 228,1739 228,1721" fill="#ffffff" stroke="#202a3a" stroke-width="1.6" stroke-linejoin="miter"/>
<text x="252" y="1734" font-family="'Inter','Helvetica Neue','Segoe UI',Arial,sans-serif" font-size="12" fill="#202a3a">Realization</text>
<line x1="336" y1="1730" x2="392" y2="1730" stroke="#202a3a" stroke-width="1.5" />
<polygon points="336,1730 345,1722 354,1730 345,1738" fill="#ffffff" stroke="#202a3a" stroke-width="1.6" stroke-linejoin="miter"/>
<text x="402" y="1734" font-family="'Inter','Helvetica Neue','Segoe UI',Arial,sans-serif" font-size="12" fill="#202a3a">Aggregation</text>
<line x1="486" y1="1730" x2="542" y2="1730" stroke="#202a3a" stroke-width="1.5" />
<polygon points="486,1730 495,1722 504,1730 495,1738" fill="#202a3a" stroke="#202a3a" stroke-width="1.6" stroke-linejoin="miter"/>
<text x="552" y="1734" font-family="'Inter','Helvetica Neue','Segoe UI',Arial,sans-serif" font-size="12" fill="#202a3a">Composition</text>
<line x1="636" y1="1730" x2="692" y2="1730" stroke="#202a3a" stroke-width="1.5" />
<polyline points="680,1737 692,1730 680,1723" fill="none" stroke="#202a3a" stroke-width="1.6" stroke-linejoin="miter" stroke-linecap="round"/>
<text x="702" y="1734" font-family="'Inter','Helvetica Neue','Segoe UI',Arial,sans-serif" font-size="12" fill="#202a3a">Association</text>
<line x1="786" y1="1730" x2="842" y2="1730" stroke="#202a3a" stroke-width="1.5" stroke-dasharray="6,5"/>
<polyline points="830,1737 842,1730 830,1723" fill="none" stroke="#202a3a" stroke-width="1.6" stroke-linejoin="miter" stroke-linecap="round"/>
<text x="852" y="1734" font-family="'Inter','Helvetica Neue','Segoe UI',Arial,sans-serif" font-size="12" fill="#202a3a">Dependency</text>
</g>
</svg>