<?xml version="1.0" encoding="UTF-8"?>
<svg xmlns="http://www.w3.org/2000/svg" viewBox="0 0 1900 1100" width="1900" height="1100">
  <rect width="1900" height="1100" fill="#fbfaf6"/>
  
    <text x="950" y="42" text-anchor="middle" font-family="'EB Garamond','Georgia','Cambria',serif" font-size="22" font-weight="700" fill="#0c0c0c">
      Sekans 1 — Hareket Sensörü Tetiklendiğinde
    </text>
    <text x="950" y="64" text-anchor="middle" font-family="'EB Garamond','Georgia','Cambria',serif" font-size="13" font-style="italic" fill="#3a3a3a">
      Observer + Mediator zinciri: Sensor -&gt; Motor -&gt; EvSistemi &amp; KullaniciBildirimAlici
    </text>
    <line x1="60" y1="80" x2="1840" y2="80" stroke="#1a1a1a" stroke-width="0.8"/>
  
  <line x1="254" y1="170" x2="254" y2="888" stroke="#3b3b3b" stroke-width="1" stroke-dasharray="5,5"/>
<line x1="602" y1="170" x2="602" y2="888" stroke="#3b3b3b" stroke-width="1" stroke-dasharray="5,5"/>
<line x1="950" y1="170" x2="950" y2="888" stroke="#3b3b3b" stroke-width="1" stroke-dasharray="5,5"/>
<line x1="1298" y1="170" x2="1298" y2="888" stroke="#3b3b3b" stroke-width="1" stroke-dasharray="5,5"/>
<line x1="1646" y1="170" x2="1646" y2="888" stroke="#3b3b3b" stroke-width="1" stroke-dasharray="5,5"/>
  <rect x="1292" y="440" width="12" height="50" fill="#ffffff" stroke="#1a1a1a" stroke-width="1.2"/>
<rect x="944" y="540" width="12" height="50" fill="#ffffff" stroke="#1a1a1a" stroke-width="1.2"/>
<rect x="596" y="640" width="12" height="168" fill="#ffffff" stroke="#1a1a1a" stroke-width="1.2"/>
<rect x="248" y="210" width="12" height="678" fill="#ffffff" stroke="#1a1a1a" stroke-width="1.2"/>
<rect x="596" y="372" width="12" height="516" fill="#ffffff" stroke="#1a1a1a" stroke-width="1.2"/>
<rect x="596" y="322" width="12" height="566" fill="#ffffff" stroke="#1a1a1a" stroke-width="1.2"/>
<rect x="1640" y="758" width="12" height="130" fill="#ffffff" stroke="#1a1a1a" stroke-width="1.2"/>
<rect x="1640" y="708" width="12" height="180" fill="#ffffff" stroke="#1a1a1a" stroke-width="1.2"/>
  
      <rect x="144" y="110" width="220" height="60"
            fill="#ececec" stroke="#1a1a1a" stroke-width="1.3"/>
      
      <text x="254" y="146" text-anchor="middle"
            font-family="'EB Garamond','Georgia','Cambria',serif" font-weight="700" font-size="14" fill="#0c0c0c">h : HareketSensoru</text>
    

      <rect x="492" y="110" width="220" height="60"
            fill="#ececec" stroke="#1a1a1a" stroke-width="1.3"/>
      <text x="602" y="132" text-anchor="middle" font-family="'EB Garamond','Georgia','Cambria',serif" font-style="italic" font-size="12.5" fill="#3a3a3a">&lt;&lt;mediator&gt;&gt;</text>
      <text x="602" y="154" text-anchor="middle"
            font-family="'EB Garamond','Georgia','Cambria',serif" font-weight="700" font-size="14" fill="#0c0c0c">m : AkilliEvIzlemeMotoru</text>
    

      <rect x="840" y="110" width="220" height="60"
            fill="#ececec" stroke="#1a1a1a" stroke-width="1.3"/>
      
      <text x="950" y="146" text-anchor="middle"
            font-family="'EB Garamond','Georgia','Cambria',serif" font-weight="700" font-size="14" fill="#0c0c0c">i : IsitmaSistemi</text>
    

      <rect x="1188" y="110" width="220" height="60"
            fill="#ececec" stroke="#1a1a1a" stroke-width="1.3"/>
      
      <text x="1298" y="146" text-anchor="middle"
            font-family="'EB Garamond','Georgia','Cambria',serif" font-weight="700" font-size="14" fill="#0c0c0c">a : AydinlatmaSistemi</text>
    

      <rect x="1536" y="110" width="220" height="60"
            fill="#ececec" stroke="#1a1a1a" stroke-width="1.3"/>
      <text x="1646" y="132" text-anchor="middle" font-family="'EB Garamond','Georgia','Cambria',serif" font-style="italic" font-size="12.5" fill="#3a3a3a">&lt;&lt;boundary&gt;&gt;</text>
      <text x="1646" y="154" text-anchor="middle"
            font-family="'EB Garamond','Georgia','Cambria',serif" font-weight="700" font-size="14" fill="#0c0c0c">u : MobilUygulama</text>
    
  <path d="M 260 210 L 320 210 L 320 232 L 264 232"
        fill="none" stroke="#1a1a1a" stroke-width="1.3" />
<polyline points="277,224.5 264,232 277,239.5" fill="none" stroke="#1a1a1a" stroke-width="1.4" stroke-linejoin="miter" stroke-linecap="round"/>
<text x="268" y="204" font-family="'Inter','Helvetica Neue','Segoe UI',Arial,sans-serif" font-size="12" fill="#0c0c0c">olcumGonder()</text>
<g>
        <path d="M 330 226
                    L 526.2 226
                    L 536.2 236
                    L 536.2 256
                    L 330 256 Z" fill="#faf6e8" stroke="#1a1a1a" stroke-width="1"/>
        <path d="M 526.2 226
                        L 526.2 236
                        L 536.2 236" fill="none" stroke="#1a1a1a" stroke-width="1"/>
        <text x="338" y="246" font-family="'EB Garamond','Georgia','Cambria',serif" font-style="italic" font-size="11.5" fill="#0c0c0c">Yerel polling/donanım olayı</text>
      </g>
<line x1="260" y1="322" x2="596" y2="322" stroke="#1a1a1a" stroke-width="1.3" />
<polyline points="583,329.5 596,322 583,314.5" fill="none" stroke="#1a1a1a" stroke-width="1.4" stroke-linejoin="miter" stroke-linecap="round"/>
<text x="428" y="314" text-anchor="middle" font-family="'Inter','Helvetica Neue','Segoe UI',Arial,sans-serif" font-size="12.5" fill="#0c0c0c"
        paint-order="stroke" stroke="#ffffff" stroke-width="3" stroke-linejoin="round">2: bildirimAl(olay : SensorOlayi)</text>
<path d="M 608 372 L 668 372 L 668 394 L 612 394"
        fill="none" stroke="#1a1a1a" stroke-width="1.3" />
<polyline points="625,386.5 612,394 625,401.5" fill="none" stroke="#1a1a1a" stroke-width="1.4" stroke-linejoin="miter" stroke-linecap="round"/>
<text x="616" y="366" font-family="'Inter','Helvetica Neue','Segoe UI',Arial,sans-serif" font-size="12" fill="#0c0c0c">ilgiliSistemleriBul(olay)</text>
<line x1="608" y1="440" x2="1292" y2="440" stroke="#1a1a1a" stroke-width="1.3" />
<polyline points="1279,447.5 1292,440 1279,432.5" fill="none" stroke="#1a1a1a" stroke-width="1.4" stroke-linejoin="miter" stroke-linecap="round"/>
<text x="950" y="432" text-anchor="middle" font-family="'Inter','Helvetica Neue','Segoe UI',Arial,sans-serif" font-size="12.5" fill="#0c0c0c"
        paint-order="stroke" stroke="#ffffff" stroke-width="3" stroke-linejoin="round">4: komutCalistir(&quot;hareketAlgilandi&quot;)</text>
<line x1="1292" y1="490" x2="608" y2="490" stroke="#1a1a1a" stroke-width="1.3" stroke-dasharray="6,5"/>
<polyline points="621,482.5 608,490 621,497.5" fill="none" stroke="#1a1a1a" stroke-width="1.4" stroke-linejoin="miter" stroke-linecap="round"/>
<text x="950" y="482" text-anchor="middle" font-family="'Inter','Helvetica Neue','Segoe UI',Arial,sans-serif" font-size="12.5" fill="#0c0c0c"
        paint-order="stroke" stroke="#ffffff" stroke-width="3" stroke-linejoin="round">5: (donus)</text>
<line x1="608" y1="540" x2="944" y2="540" stroke="#1a1a1a" stroke-width="1.3" />
<polyline points="931,547.5 944,540 931,532.5" fill="none" stroke="#1a1a1a" stroke-width="1.4" stroke-linejoin="miter" stroke-linecap="round"/>
<text x="776" y="532" text-anchor="middle" font-family="'Inter','Helvetica Neue','Segoe UI',Arial,sans-serif" font-size="12.5" fill="#0c0c0c"
        paint-order="stroke" stroke="#ffffff" stroke-width="3" stroke-linejoin="round">6: komutCalistir(&quot;hareketAlgilandi&quot;)</text>
<line x1="944" y1="590" x2="608" y2="590" stroke="#1a1a1a" stroke-width="1.3" stroke-dasharray="6,5"/>
<polyline points="621,582.5 608,590 621,597.5" fill="none" stroke="#1a1a1a" stroke-width="1.4" stroke-linejoin="miter" stroke-linecap="round"/>
<text x="776" y="582" text-anchor="middle" font-family="'Inter','Helvetica Neue','Segoe UI',Arial,sans-serif" font-size="12.5" fill="#0c0c0c"
        paint-order="stroke" stroke="#ffffff" stroke-width="3" stroke-linejoin="round">7: (donus)</text>
<path d="M 608 640 L 668 640 L 668 662 L 612 662"
        fill="none" stroke="#1a1a1a" stroke-width="1.3" />
<polyline points="625,654.5 612,662 625,669.5" fill="none" stroke="#1a1a1a" stroke-width="1.4" stroke-linejoin="miter" stroke-linecap="round"/>
<text x="616" y="634" font-family="'Inter','Helvetica Neue','Segoe UI',Arial,sans-serif" font-size="12" fill="#0c0c0c">durumOzetiYayinla()</text>
<line x1="608" y1="708" x2="1640" y2="708" stroke="#1a1a1a" stroke-width="1.3" />
<polyline points="1627,715.5 1640,708 1627,700.5" fill="none" stroke="#1a1a1a" stroke-width="1.4" stroke-linejoin="miter" stroke-linecap="round"/>
<text x="1124" y="700" text-anchor="middle" font-family="'Inter','Helvetica Neue','Segoe UI',Arial,sans-serif" font-size="12.5" fill="#0c0c0c"
        paint-order="stroke" stroke="#ffffff" stroke-width="3" stroke-linejoin="round">9: bildirimGoster(olay)</text>
<line x1="608" y1="758" x2="1640" y2="758" stroke="#1a1a1a" stroke-width="1.3" />
<polyline points="1627,765.5 1640,758 1627,750.5" fill="none" stroke="#1a1a1a" stroke-width="1.4" stroke-linejoin="miter" stroke-linecap="round"/>
<text x="1124" y="750" text-anchor="middle" font-family="'Inter','Helvetica Neue','Segoe UI',Arial,sans-serif" font-size="12.5" fill="#0c0c0c"
        paint-order="stroke" stroke="#ffffff" stroke-width="3" stroke-linejoin="round">10: durumYansit(durumOzeti)</text>
<line x1="596" y1="808" x2="260" y2="808" stroke="#1a1a1a" stroke-width="1.3" stroke-dasharray="6,5"/>
<polyline points="273,800.5 260,808 273,815.5" fill="none" stroke="#1a1a1a" stroke-width="1.4" stroke-linejoin="miter" stroke-linecap="round"/>
<text x="428" y="800" text-anchor="middle" font-family="'Inter','Helvetica Neue','Segoe UI',Arial,sans-serif" font-size="12.5" fill="#0c0c0c"
        paint-order="stroke" stroke="#ffffff" stroke-width="3" stroke-linejoin="round">11: (akis tamam)</text>
</svg>